<svg xmlns="http://www.w3.org/2000/svg" viewBox="0 0 32 32" width="32" height="32">
  <rect width="32" height="32" rx="5" fill="#0B1F3A"/>
  <g transform="translate(1.5, 2) scale(0.134) translate(-10, -28)">
    <path d="M195.418,183.797L195.418,183.797h-0.075l-178.452-2.1c-3.552-0.04-6.559-2.847-6.845-6.389l-1.007-12.47c-0.131-1.625-0.849-4.352-1.536-5.835l-0.344-0.741c-1.148-2.479-1.366-6.299-0.507-8.89l8.843-26.64c0.559-1.687,1.19-4.604,1.377-6.368l7.772-73.277c0.339-3.195,2.929-6.256,6.024-7.12l5.169-1.439c0.774-0.216,1.588-0.325,2.418-0.325c2.456,0,4.619,0.938,5.786,2.512c0.29,0.326,1.641,1.023,2.933,1.123l0.558,0.043c3.189,0.246,6.336,2.726,7.322,5.768l3.204,9.886c0.331,1.022,1.689,2.456,2.691,2.841l3.6,1.386c1.11,0.426,3.593,0.472,4.714,0.086l2.451-0.839c2.212-0.76,5.761-1.266,8.13-1.136l12.916,0.68c1.706,0.083,4.542-0.243,6.089-0.679l41.288-11.625c2.15-0.604,5.582-1.116,7.812-1.165l44.224-0.955c2.861,0,6.274,1.554,8.116,3.693l7.605,8.832c1.98,2.298,2.728,6.196,1.736,9.066l-13.125,37.979c-0.166,0.48,0.132,1.242,0.579,1.483l1.79,0.96c2.731,1.467,4.744,4.908,4.683,8.006l-1.314,67.15C201.976,180.882,199.002,183.797,195.418,183.797z" fill="none" stroke="#C5A561" stroke-width="8"/>
  </g>
  <!-- Flagstick - moved right to visual center of Oregon shape -->
  <line x1="13.5" y1="9" x2="13.5" y2="22" stroke="#C5A561" stroke-width="1.2" stroke-linecap="round"/>
  <!-- Flag -->
  <path d="M13.5 9 L18.5 11.5 L13.5 14 Z" fill="#C5A561"/>
  <!-- Ball -->
  <circle cx="13.5" cy="23.2" r="1.1" fill="#C5A561"/>
</svg>
